<svg xmlns="http://www.w3.org/2000/svg" viewBox="0 0 120 132" width="120" height="132" role="img" aria-label="Mascota pingüino de VT Security">
  <!-- feet -->
  <ellipse cx="45" cy="125" rx="13" ry="6.5" fill="#f4a020"/>
  <ellipse cx="75" cy="125" rx="13" ry="6.5" fill="#f4a020"/>
  <!-- body -->
  <path d="M60 6 C31 6 18 38 18 72 C18 105 36 128 60 128 C84 128 102 105 102 72 C102 38 89 6 60 6 Z" fill="#11181c"/>
  <!-- wings -->
  <path d="M22 54 C13 75 15 99 31 111 C31 96 29 80 35 65 Z" fill="#0a0f12"/>
  <path d="M98 54 C107 75 105 99 89 111 C89 96 91 80 85 65 Z" fill="#0a0f12"/>
  <!-- belly -->
  <path d="M60 50 C42 50 31 66 31 90 C31 110 44 126 60 126 C76 126 89 110 89 90 C89 66 78 50 60 50 Z" fill="#eef2ee"/>
  <!-- eyes -->
  <ellipse cx="48" cy="48" rx="9" ry="11" fill="#ffffff"/>
  <ellipse cx="72" cy="48" rx="9" ry="11" fill="#ffffff"/>
  <circle cx="50" cy="51" r="4.2" fill="#11181c"/>
  <circle cx="70" cy="51" r="4.2" fill="#11181c"/>
  <circle cx="51.6" cy="49.4" r="1.3" fill="#ffffff"/>
  <circle cx="71.6" cy="49.4" r="1.3" fill="#ffffff"/>
  <!-- beak -->
  <path d="M52 60 L68 60 L60 70 Z" fill="#f4a020"/>
  <!-- brand prompt on belly -->
  <path d="M50 82 l9 8 l-9 8" fill="none" stroke="#3fb950" stroke-width="4" stroke-linecap="round" stroke-linejoin="round"/>
  <rect x="62" y="94" width="15" height="4" rx="2" fill="#3fb950"/>
</svg>
